<svg width="89" height="60" viewBox="0 0 89 60" fill="none" xmlns="http://www.w3.org/2000/svg">
<g clip-path="url(#clip0_5146_22410)">
<path d="M0.54388 19.8695C0.54388 11.211 0.529377 18.7745 0.54388 10.1088C0.558383 3.51703 4.06092 0.0217447 10.7179 0.0144931C24.7716 -1.01501e-05 38.8252 -0.00726178 52.8862 0.0144931C59.3619 0.0217447 63.0022 3.73458 63.0094 10.2393C63.0094 20.6164 63.0167 14.7716 63.0094 25.1486C63.0022 31.3198 59.2748 35.1196 53.1472 35.1341C42.1175 35.1632 31.0805 35.1777 20.0508 35.1051C18.4409 35.0979 17.3242 35.5765 16.2147 36.7223C12.4075 40.6526 7.99856 48.8905 4.12619 52.7629C3.26324 53.6258 2.4293 54.7281 1.00798 54.0536C-0.311813 53.43 0.0580206 52.103 0.0580206 51.0007C0.0362657 42.0957 0.551132 28.789 0.551132 19.8767L0.54388 19.8695Z" fill="#2B45D8"/>
<path d="M88.6512 27.2806C88.6512 36.2581 88.6512 45.2429 88.6512 54.2204C88.6512 55.2574 88.905 56.4612 87.6722 57.0123C86.3742 57.5997 85.5475 56.7005 84.7208 55.8738C80.7469 51.8854 76.744 47.926 72.8136 43.8941C71.8274 42.8861 70.8339 42.4293 69.3981 42.4583C64.5033 42.5453 59.6012 42.4873 54.7063 42.4945C53.4228 42.4945 52.0812 42.4873 52.0812 40.7396C52.0812 39.108 53.2777 38.9195 54.6338 38.8325C61.6606 38.3901 66.686 32.8209 66.7223 25.3589C66.773 15.0761 66.7295 21.0152 66.7368 10.7324C66.7368 7.52717 66.8891 7.36764 70 7.36039C73.1037 7.35313 76.2074 7.30237 79.3038 7.37489C84.9601 7.49817 88.6077 11.1675 88.6367 16.8165C88.6875 25.7143 88.6512 18.3829 88.6512 27.2806Z" fill="#E9EFFF"/>
<path d="M9.89848 55.1414H13.4155C13.5533 56.454 14.438 57.0704 15.9681 57.0704C17.2806 57.0704 18.1653 56.6135 18.1653 55.62C18.1653 54.9746 17.7375 54.5758 16.8238 54.3873L14.2495 53.8506C11.3271 53.1762 10.2756 51.6244 10.2756 49.7752C10.2756 47.0631 12.6106 45.5113 15.9899 45.5113C19.7172 45.5113 21.6751 47.3387 21.7331 50.3408H18.4627C18.3031 48.9485 17.3894 48.4337 16.0479 48.4337C14.7063 48.4337 14.0899 48.9195 14.0899 49.6664C14.0899 50.3626 14.5975 50.8195 15.5403 51.008L18.1726 51.5736C20.3698 52.0595 22.1973 53.0747 22.1973 55.5475C22.1973 58.6585 19.3256 60 15.9463 60C12.219 60 9.93474 58.3612 9.91299 55.1414H9.89848Z" fill="#FAF9F9"/>
<path d="M22.9659 52.7266C22.9659 47.52 26.2654 45.5113 29.971 45.5113C33.6766 45.5113 36.599 47.3894 36.599 52.6759C36.599 53.1835 36.57 53.4518 36.5192 53.7491H26.7005C26.9181 56.0841 28.1218 57.0196 30.0508 57.0196C31.8492 57.0196 32.6251 56.2944 32.9514 55.1704H36.4105C35.7143 58.3612 33.2415 60 30 60C26.4612 60 22.9732 58.0421 22.9732 52.7266H22.9659ZM32.8934 51.4358C32.8426 49.826 32.0087 48.4844 29.8622 48.4844C28.0348 48.4844 26.9616 49.5069 26.6933 51.4358H32.8934Z" fill="#FAF9F9"/>
<path d="M53.3648 48.76C51.9724 48.76 50.8412 49.6954 50.8412 51.8202V59.7389H46.9253V51.8202C46.9253 49.7027 46.0406 48.76 44.6193 48.76C43.198 48.76 42.0957 49.6954 42.0957 51.8202V59.7389H38.1798V45.7868H42.0957V48.7092H42.2553C42.4728 47.3967 43.8941 45.5185 46.3307 45.5185C48.2596 45.5185 49.8985 46.5627 50.5439 48.7092C50.8122 47.4184 52.3423 45.5185 54.9746 45.5185C57.607 45.5185 59.5867 47.2589 59.5867 50.8847V59.7389H55.6708V51.8202C55.6708 49.7027 54.7861 48.76 53.3648 48.76Z" fill="#FAF9F9"/>
<path d="M61.1748 56.0261C61.1748 52.9442 63.6983 52.2698 66.1131 51.9217L68.4772 51.5736C69.768 51.3851 70.1668 51.1675 70.1668 50.3916V50.2031C70.1668 48.731 69.2023 48.3249 67.9913 48.3249C66.7803 48.3249 65.6055 48.731 65.6055 50.1741V50.4134L61.9289 50.4424V49.797C61.9289 47.0631 63.7564 45.504 68.1001 45.504C72.4438 45.504 74.0029 47.0051 74.0029 50.0363V59.7244H70.2756V57.2589H70.116C69.8477 58.0131 68.7237 59.9928 65.6635 59.9928C63.3865 59.9928 61.182 58.8905 61.182 56.0189L61.1748 56.0261ZM66.9978 57.2081C68.847 57.2081 70.1668 55.9754 70.1668 54.8731V53.314C69.9492 53.6331 69.2821 53.7419 68.6657 53.8506L66.7078 54.1987C65.504 54.3872 65.0979 54.9746 65.0979 55.6998C65.0979 56.5555 65.6635 57.2009 67.0051 57.2009L66.9978 57.2081Z" fill="#FAF9F9"/>
</g>
<defs>
<clipPath id="clip0_5146_22410">
<rect width="88.6657" height="60" fill="white"/>
</clipPath>
</defs>
</svg>
